<?xml version="1.0" encoding="UTF-8"?>
<svg width="318px" height="279px" viewBox="0 0 318 279" version="1.1" xmlns="http://www.w3.org/2000/svg" xmlns:xlink="http://www.w3.org/1999/xlink">
    <!-- Generator: Sketch 55.2 (78181) - https://sketchapp.com -->
    <title>Artboard</title>
    <desc>Created with Sketch.</desc>
    <defs>
        <path d="M310.339746,153.5 L247.910254,261.631052 C242.55127,270.913084 232.64746,276.631052 221.929492,276.631052 L97.0705081,276.631052 C86.3525404,276.631052 76.4487298,270.913084 71.089746,261.631052 L8.66025404,153.5 C3.30127019,144.217968 3.30127019,132.782032 8.66025404,123.5 L71.089746,15.3689481 C76.4487298,6.08691579 86.3525404,0.368948096 97.0705081,0.368948096 L221.929492,0.368948096 C232.64746,0.368948096 242.55127,6.08691579 247.910254,15.3689481 L310.339746,123.5 C315.69873,132.782032 315.69873,144.217968 310.339746,153.5 Z" id="path-1"></path>
    </defs>
    <g id="Artboard" stroke="none" stroke-width="1" fill="none" fill-rule="evenodd">
        <g id="ee-yellow" transform="translate(-1.000000, 1.000000)">
            <mask id="mask-2" fill="white">
                <use xlink:href="#path-1"></use>
            </mask>
            <g id="Mask"></g>
            <g id="SVG-Layer-Copy" mask="url(#mask-2)" fill="#FFE01C" fill-rule="nonzero">
                <g transform="translate(-58.000000, -13.000000)" id="Rectangle">
                    <rect x="0.5" y="0" width="455" height="303"></rect>
                </g>
            </g>
        </g>
        <g id="slider-3" transform="translate(69.000000, 49.000000)" fill="#000000" fill-rule="nonzero">
            <path d="M90.5,0 C40.5181934,0 0,40.5181934 0,90.5 C0,140.481807 40.5181934,181 90.5,181 C140.481807,181 181,140.481807 181,90.5 C180.943437,40.5418789 140.458121,0.0565625 90.5,0 Z M90.5,174.966549 C43.8504316,174.966549 6.03345117,137.149568 6.03345117,90.5 C6.03345117,43.8504316 43.8504316,6.03345117 90.5,6.03345117 C137.149568,6.03345117 174.966549,43.8504316 174.966549,90.5 C174.914229,137.128004 137.128004,174.914229 90.5,174.966549 Z" id="Shape"></path>
            <path d="M135.916667,42.0000439 L72.3333333,42.0000439 L72.3333333,35.9999561 C72.3280111,31.0316991 68.2642839,27.0052734 63.25,27 L57.1943262,27 C52.1800423,27.0052734 48.1163151,31.0316991 48.1109928,35.9999561 L48.1109928,42.0000439 L45.0833333,42.0000439 C40.0765007,42.023247 36.023418,46.0391258 36,51 C36.0053223,55.968257 40.0690495,59.9946826 45.0833333,59.9999561 L48.1109928,59.9999561 L48.1109928,66.0000439 C48.1163151,70.9683009 52.1800423,74.9947266 57.1943262,75 L63.25,75 C68.2642839,74.9947266 72.3280111,70.9683009 72.3333333,66.0000439 L72.3333333,59.9999561 L135.916667,59.9999561 C140.923499,59.976753 144.976582,55.9608742 145,51 C144.994678,46.031743 140.930951,42.0053174 135.916667,42.0000439 Z M48.1109928,53.9998682 L45.0833333,53.9998682 C43.4121419,53.9977588 42.0578027,52.6558513 42.0556601,51.0000037 C42.0531901,50.1921133 42.388138,49.4190312 42.9810384,48.8642682 C43.5338444,48.3045835 44.2931543,47.9927491 45.0833333,48.0001318 L48.1109928,48.0001318 L48.1109928,53.9998682 Z M63.25,42.0000439 L66.2776595,42.0000439 L66.2776595,48.0001318 L63.25,48.0001318 C61.5777441,48.0001318 60.2223405,49.343094 60.2223405,51 C60.2223405,52.656906 61.5777441,53.9998682 63.25,53.9998682 L66.2776595,53.9998682 L66.2776595,59.9999561 L63.25,59.9999561 C61.5777441,59.9999561 60.2223405,61.3429182 60.2223405,62.9998242 C60.2223405,64.6567302 61.5777441,65.9996924 63.25,65.9996924 L66.2776595,65.9996924 C66.2755306,67.6555437 64.9211914,68.9974512 63.25,68.9995605 L57.1943262,68.9995605 C55.5231348,68.9974512 54.1687956,67.6555437 54.1666667,65.9996924 L54.1666667,35.9999561 C54.1687956,34.3441048 55.5231348,33.0021973 57.1943262,33.0000879 L63.25,33.0000879 C64.9211914,33.0021973 66.2755306,34.3441048 66.2776595,35.9999561 L63.25,35.9999561 C61.5777441,35.9999561 60.2223405,37.3429182 60.2223405,38.9998242 C60.2223405,40.6567302 61.5777441,42.0000439 63.25,42.0000439 Z M138.018962,53.1357318 C137.466156,53.6954165 136.706846,54.0072509 135.916667,53.9998682 L72.3333333,53.9998682 L72.3333333,47.9997803 L135.916667,47.9997803 C137.587858,48.0018896 138.942197,49.3437971 138.94434,50.9996484 C138.94681,51.8078867 138.611862,52.5809688 138.018962,53.1357318 Z" id="Shape"></path>
            <path d="M135.916667,81.0000439 L126.833333,81.0000439 L126.833333,74.9999561 C126.828011,70.0316991 122.764284,66.0052734 117.75,66 L111.694326,66 C106.680042,66.0052734 102.616315,70.0316991 102.610993,74.9999561 L102.610993,81.0000439 L45.0833333,81.0000439 C40.0765007,81.023247 36.023418,85.0391258 36,90 C36.0053223,94.968257 40.0690495,98.9946826 45.0833333,98.9999561 L102.610993,98.9999561 L102.610993,105.000044 C102.616315,109.968301 106.680042,113.994727 111.694326,114 L117.75,114 C122.764284,113.994727 126.828011,109.968301 126.833333,105.000044 L126.833333,98.9999561 L135.916667,98.9999561 C140.923499,98.976753 144.976582,94.9608742 145,90 C144.994678,85.031743 140.930951,81.0053174 135.916667,81.0000439 Z M102.610993,92.9998682 L45.0833333,92.9998682 C43.4121419,92.9977588 42.0578027,91.6558513 42.0556601,90.0000037 C42.0531901,89.1921133 42.388138,88.4190312 42.9810384,87.8642682 C43.5338444,87.3045835 44.2931543,86.9927491 45.0833333,87.0001318 L102.610993,87.0001318 L102.610993,92.9998682 L102.610993,92.9998682 Z M117.75,81.0000439 L120.77766,81.0000439 L120.77766,87.0001318 L117.75,87.0001318 C116.077744,87.0001318 114.72234,88.343094 114.72234,90 C114.72234,91.656906 116.078099,92.9998682 117.75,92.9998682 L120.77766,92.9998682 L120.77766,98.9999561 L117.75,98.9999561 C116.077744,98.9999561 114.72234,100.342918 114.72234,101.999824 C114.72234,103.65673 116.078099,104.999692 117.75,104.999692 L120.77766,104.999692 C120.775531,106.655544 119.421191,107.997451 117.75,107.999561 L111.694326,107.999561 C110.023135,107.997451 108.668796,106.655544 108.666667,104.999692 L108.666667,74.9999561 C108.668796,73.3441048 110.023135,72.0021973 111.694326,72.0000879 L117.75,72.0000879 C119.421191,72.0021973 120.775531,73.3441048 120.77766,74.9999561 L117.75,74.9999561 C116.077744,74.9999561 114.72234,76.3429182 114.72234,77.9998242 C114.72234,79.6567302 116.077744,81.0000439 117.75,81.0000439 Z M138.018962,92.1357318 C137.466156,92.6954165 136.706846,93.0072509 135.916667,92.9998682 L126.833333,92.9998682 L126.833333,86.9997803 L135.916667,86.9997803 C137.587858,87.0018896 138.942197,88.3437971 138.94434,89.9996484 C138.94681,90.8078867 138.611862,91.5809688 138.018962,92.1357318 Z" id="Shape"></path>
            <path d="M135.916667,121.000044 L72.3333333,121.000044 L72.3333333,114.999956 C72.3280111,110.031699 68.2642839,106.005273 63.25,106 L57.1943262,106 C52.1800423,106.005273 48.1163151,110.031699 48.1109928,114.999956 L48.1109928,121.000044 L45.0833333,121.000044 C40.0765007,121.023247 36.023418,125.039126 36,130 C36.0053223,134.968257 40.0690495,138.994683 45.0833333,138.999956 L48.1109928,138.999956 L48.1109928,145.000044 C48.1163151,149.968301 52.1800423,153.994727 57.1943262,154 L63.25,154 C68.2642839,153.994727 72.3280111,149.968301 72.3333333,145.000044 L72.3333333,138.999956 L135.916667,138.999956 C140.923499,138.976753 144.976582,134.960874 145,130 C144.994678,125.031743 140.930951,121.005669 135.916667,121.000044 Z M48.1109928,133.00022 L45.0833333,133.00022 C43.4121419,132.99811 42.0578027,131.656203 42.0556601,130.000355 C42.0531901,129.192465 42.388138,128.419383 42.9810384,127.86462 C43.5338444,127.304935 44.2931543,126.993101 45.0833333,127.000483 L48.1109928,127.000483 L48.1109928,133.00022 Z M63.25,121.000044 L66.2776595,121.000044 L66.2776595,127.000132 L63.25,127.000132 C61.5777441,127.000132 60.2223405,128.343094 60.2223405,130 C60.2223405,131.656906 61.5777441,132.999868 63.25,132.999868 L66.2776595,132.999868 L66.2776595,138.999956 L63.25,138.999956 C61.5777441,138.999956 60.2223405,140.34327 60.2223405,141.999824 C60.2223405,143.656379 61.5777441,144.999692 63.25,144.999692 L66.2776595,144.999692 C66.2755306,146.655544 64.9211914,147.997451 63.25,147.999561 L57.1943262,147.999561 C55.5231348,147.997451 54.1687956,146.655544 54.1666667,144.999692 L54.1666667,114.999956 C54.1687956,113.344105 55.5231348,112.002197 57.1943262,112.000088 L63.25,112.000088 C64.9211914,112.002197 66.2755306,113.344105 66.2776595,114.999956 L63.25,114.999956 C61.5777441,114.999956 60.2223405,116.34327 60.2223405,117.999824 C60.2223405,119.657082 61.5777441,121.000044 63.25,121.000044 Z M138.018962,132.135732 C137.466156,132.695417 136.706846,133.007251 135.916667,132.999868 L72.3333333,132.999868 L72.3333333,127.000132 L135.916667,127.000132 C137.587858,127.002241 138.942197,128.344149 138.94434,130 C138.94681,130.808238 138.611862,131.580969 138.018962,132.135732 Z" id="Shape"></path>
        </g>
    </g>
</svg>